. 
  
http://www.torrentday.com/        :     The Hottest Private Tracker On The Net!!!
 
http://www.torrentday.com          :     Once & For all ;)


               www . TorrentDay . Com 

(((((((((((((= Enjoy No RAR releases =))))))))))))))))))))


...................................NFO:....................................

.[img]http://img823.imageshack.us/img823/5498/thenextthreedaysbluray.jpg[/img]

[color=blue][size=5][b]The Next Three Days 2010 PPVRiP XVID AC3 Hive-CM8[/b][/size][/color]


[b]Thx Hive

CM8 Doing It Right The First Time :D

Why download a touched up rip of a rip BRrip
Get the real deal BDRip
Enjoy

Source Bluray

Video: 720x304 @bitrate 1870 2pass
Audio: DTS to AC3 5.1 @448
Sample: yes included
Subs: yes english in srt /subs[/b]
 
http://www.imdb.com/title/tt1458175/


General
Complete name                    : The.Next.Three.Days.2010.BDRip.XVID.AC3.HQ.Hive-CM8.avi
Format                           : AVI
Format/Info                      : Audio Video Interleave
Format profile                   : OpenDML
File size                        : 2.16 GiB
Duration                         : 2h 13mn
Overall bit rate                 : 2 324 Kbps
Writing application              : AVI-Mux GUI 1.17.7, Aug  8 2006  20:59:17

Video
ID                               : 0
Format                           : MPEG-4 Visual
Format profile                   : Advanced Simple@L5
Format settings, BVOP            : Yes
Format settings, QPel            : Yes
Format settings, GMC             : No warppoints
Format settings, Matrix          : Default (H.263)
Muxing mode                      : Packed bitstream
Codec ID                         : XVID
Codec ID/Hint                    : XviD
Duration                         : 2h 13mn
Bit rate                         : 1 870 Kbps
Width                            : 720 pixels
Height                           : 304 pixels
Display aspect ratio             : 2.35:1
Frame rate                       : 23.976 fps
Color space                      : YUV
Chroma subsampling               : 4:2:0
Bit depth                        : 8 bits
Scan type                        : Progressive
Bits/(Pixel*Frame)               : 0.356
Stream size                      : 1.74 GiB (80%)
Writing library                  : XviD 1.2.1 (UTC 2008-12-04)

Audio
ID                               : 1
Format                           : AC-3
Format/Info                      : Audio Coding 3
Mode extension                   : CM (complete main)
Codec ID                         : 2000
Duration                         : 2h 13mn
Bit rate mode                    : Constant
Bit rate                         : 448 Kbps
Channel(s)                       : 6 channels
Channel positions                : Front: L C R, Side: L R, LFE
Sampling rate                    : 48.0 KHz
Bit depth                        : 16 bits
Stream size                      : 427 MiB (19%)
Alignment                        : Aligned on interleaves
Interleave, duration             : 64 ms (1.53 video frames)
Interleave, preload duration     : 192 ms




Russell Crowe ... John Brennan
Elizabeth Banks ... Lara Brennan
Michael Buie ... Mick Brennan
Moran Atias ... Erit
Remy Nozik ... Jenna
Toby Green ... Three Year Old Luke
Tyler Green ... Three Year Old Luke
Jason Beghe ... Detective Quinn
Aisha Hinds ... Detective Collero 



Lara Brennan is arrested for murdering her boss whom she had an argument with. 
It seems she was seen leaving the scene of the crime and her fingerprints were 
on the murder weapon. Her husband, John would spend the next few years trying to 
get her released but there's no evidence that negates the evidence against her. 
And when the strain of being separated from her family especially her son gets to her, 
John decides to break her out. So he does a lot of research to find a way.



[img]http://img12.imageshack.us/img12/8812/58635465.png[/img]
[img]http://img820.imageshack.us/img820/5867/nenem.png[/img]
[img]http://img38.imageshack.us/img38/2698/nenene.png[/img]
[img]http://img231.imageshack.us/img231/4263/nenenene.png[/img]
[img]http://img16.imageshack.us/img16/6007/nenenenennee.png[/img]
[img]http://img202.imageshack.us/img202/7065/nenenennee.png[/img]
[img]http://img190.imageshack.us/img190/3935/nenenenneennee.png[/img]
[img]http://img651.imageshack.us/img651/3698/nenenennneeennee.png[/img]
[img]http://img196.imageshack.us/img196/244/nenenennnneeeennee.png[/img]





Greetz

iNK,LUSi,,MAGNET,CLASSiFiED,THC,LEGi0N,T0XiC,IMAGiNE,ViSiON,WBZ,FLAWL3SS,NOVA
Vik,Rapeseed,D2U,SAFC,goldadvance,MEMORY100,KaN1vE,Unevano,Pinnz,Wayne,Mr Hive
and all P2P groups 
Great Work Guys :D